<svg width="139" height="52" viewBox="0 0 139 52" fill="none" xmlns="http://www.w3.org/2000/svg">
<path d="M8.01575 21.25L9.91418 14.2188H38.0392L31.1251 40H3.00012L7.40637 23.5938H19.1251L16.5939 32.9688H21.2814L24.422 21.25H8.01575Z" fill="#FF5151"/>
<path d="M48.3282 28.2812L57.2345 21.25H50.2032L48.3282 28.2812ZM48.3282 28.2812L45.1876 40H33.4689L40.3829 14.2188H77.8829L60.047 28.2812L68.6251 40H56.9064L48.3282 28.2812Z" fill="#FF5151"/>
<path d="M84.9142 14.2188L78.0001 40H66.2814L73.1954 14.2188H84.9142ZM73.8282 11.875L88.6876 0.15625L85.547 11.875H73.8282Z" fill="#FF5151"/>
<path d="M92.0626 40H80.3439L87.2579 14.2188H110.695L108.797 21.25H97.0782L92.0626 40ZM98.8126 23.5938H105.844L96.9142 30.625L98.8126 23.5938Z" fill="#FF5151"/>
<path d="M129.891 21.25L124.875 40L110.016 51.7188L118.172 21.25H111.141L113.039 14.2188H138.82L136.922 21.25H129.891Z" fill="#FF5151"/>
<rect width="108.431" height="8.28221" transform="matrix(1 0 -0.258819 0.965926 2.14368 43)" fill="#FF5151"/>
</svg>
