<svg width="107" height="66" viewBox="0 0 107 66" fill="none" xmlns="http://www.w3.org/2000/svg">
<path d="M1.24013 23.648C1.33613 22.88 1.80013 22.464 2.63213 22.4C5.00013 22.272 9.68813 22.208 16.6961 22.208C23.6721 22.208 28.3441 22.272 30.7121 22.4C31.5441 22.464 32.0081 22.88 32.1041 23.648C32.3921 26.88 32.5361 30.352 32.5361 34.064C32.5361 34.704 32.3761 35.088 32.0561 35.216C31.7681 35.312 31.5601 35.36 31.4321 35.36C31.1441 35.36 30.8881 35.216 30.6641 34.928C27.7201 32.56 25.4161 31.376 23.7521 31.376C23.0801 31.376 22.5841 31.584 22.2641 32C21.9761 32.384 21.8321 32.848 21.8321 33.392C21.8321 33.648 21.8641 33.92 21.9281 34.208C23.0801 45.568 23.7841 52.288 24.0401 54.368C24.0401 54.432 24.0401 54.496 24.0401 54.56C24.0401 54.88 23.9121 55.184 23.6561 55.472C23.4321 55.76 23.1121 55.92 22.6961 55.952C21.7041 56.08 19.7361 56.144 16.7921 56.144C14.0721 56.144 12.0561 56.08 10.7441 55.952C10.3281 55.92 9.99213 55.76 9.73613 55.472C9.51213 55.184 9.40013 54.88 9.40013 54.56C9.40013 54.496 9.40013 54.432 9.40013 54.368C9.72013 51.712 10.4241 44.992 11.5121 34.208C11.5441 33.952 11.5601 33.712 11.5601 33.488C11.5601 32.912 11.4161 32.416 11.1281 32C10.8401 31.584 10.3601 31.376 9.68813 31.376C7.96013 31.376 5.62413 32.56 2.68013 34.928C2.42413 35.216 2.16813 35.36 1.91212 35.36C1.75213 35.36 1.52813 35.296 1.24013 35.168C0.952125 35.04 0.808125 34.64 0.808125 33.968C0.936125 29.392 1.08013 25.952 1.24013 23.648ZM31.8885 49.136C31.8885 46.768 32.9765 44.896 35.1525 43.52C37.3605 42.144 40.2245 41.248 43.7445 40.832C45.4405 40.608 46.6245 40.368 47.2965 40.112C48.0005 39.856 48.3525 39.424 48.3525 38.816C48.3525 37.632 47.1205 37.04 44.6565 37.04C43.3445 37.04 41.8085 37.312 40.0485 37.856C38.3205 38.4 36.8005 39.12 35.4885 40.016C35.2005 40.304 34.9285 40.448 34.6725 40.448C34.5445 40.448 34.3365 40.384 34.0485 40.256C33.7925 40.096 33.6645 39.696 33.6645 39.056C33.6645 38.832 33.6645 38.592 33.6645 38.336C33.6645 36.8 33.7445 34.832 33.9045 32.432C33.9685 31.632 34.2725 31.12 34.8165 30.896C37.5365 29.968 41.1845 29.504 45.7605 29.504C50.3685 29.504 53.7125 30.336 55.7925 32C57.8725 33.664 59.0725 35.984 59.3925 38.96C59.9365 44.08 60.2885 49.264 60.4485 54.512C60.4485 55.344 60.0325 55.84 59.2005 56C58.1445 56.128 56.6085 56.192 54.5925 56.192C52.7045 56.192 51.1685 56.128 49.9845 56C49.3765 55.936 48.9125 55.744 48.5925 55.424C48.3045 55.104 48.1605 54.768 48.1605 54.416C48.1605 54.32 48.1765 54.208 48.2085 54.08C48.3685 53.024 48.5125 51.856 48.6405 50.576C48.6405 50.512 48.6405 50.464 48.6405 50.432C48.6405 50.048 48.5765 49.84 48.4485 49.808C48.3205 49.776 48.2405 49.76 48.2085 49.76C47.9845 49.76 47.7925 49.952 47.6325 50.336C46.1285 54.368 43.4085 56.384 39.4725 56.384C34.4165 56.384 31.8885 53.968 31.8885 49.136ZM43.1685 46.112C43.1685 47.488 43.9045 48.176 45.3765 48.176C46.0805 48.176 46.7685 47.856 47.4405 47.216C48.1445 46.544 48.4965 45.696 48.4965 44.672C48.4965 44.128 48.3365 43.68 48.0165 43.328C47.7285 42.976 47.3125 42.8 46.7685 42.8C45.8405 42.8 45.0085 43.12 44.2725 43.76C43.5365 44.4 43.1685 45.184 43.1685 46.112ZM61.6976 54.56C62.4016 47.072 65.7296 42.8 71.6816 41.744C71.9056 41.712 72.0496 41.648 72.1136 41.552C72.1776 41.424 72.2256 41.312 72.2576 41.216C72.2256 41.152 72.1776 41.056 72.1136 40.928C72.0496 40.8 71.9056 40.704 71.6816 40.64C69.0896 40.128 67.0736 39.072 65.6336 37.472C64.2256 35.84 63.4256 33.824 63.2336 31.424C63.2336 31.36 63.2336 31.296 63.2336 31.232C63.2336 30.464 63.6496 30.016 64.4816 29.888C65.3136 29.76 66.8176 29.696 68.9936 29.696C71.3296 29.696 72.9616 29.76 73.8896 29.888C74.6896 30.016 75.0896 30.464 75.0896 31.232C75.2176 32.896 75.5536 34.432 76.0976 35.84C76.6736 37.248 77.2816 37.952 77.9216 37.952C78.5616 37.952 79.1696 37.232 79.7456 35.792C80.3536 34.352 80.6896 32.816 80.7536 31.184C80.7536 30.448 81.1376 30.016 81.9056 29.888C82.8016 29.76 84.4496 29.696 86.8496 29.696C89.0256 29.696 90.5616 29.76 91.4576 29.888C92.2256 30.016 92.6256 30.432 92.6576 31.136C92.6256 31.232 92.6096 31.328 92.6096 31.424C92.4176 33.76 91.6016 35.76 90.1616 37.424C88.7216 39.056 86.7216 40.144 84.1616 40.688C83.8096 40.784 83.6336 40.976 83.6336 41.264C83.6336 41.552 83.8096 41.728 84.1616 41.792C90.3056 42.944 93.6496 47.2 94.1936 54.56C94.1936 54.592 94.1936 54.64 94.1936 54.704C94.1936 54.992 94.0816 55.28 93.8576 55.568C93.6656 55.824 93.3776 55.968 92.9936 56C91.8416 56.128 90.2736 56.192 88.2896 56.192C85.6016 56.192 83.6016 56.128 82.2896 56C81.4896 55.904 81.0576 55.472 80.9936 54.704C80.8656 52.72 80.4816 50.656 79.8416 48.512C79.2016 46.336 78.5616 45.248 77.9216 45.248C77.2496 45.248 76.5936 46.336 75.9536 48.512C75.3136 50.688 74.9456 52.752 74.8496 54.704C74.8496 55.472 74.4336 55.904 73.6016 56C72.2896 56.128 70.2736 56.192 67.5536 56.192C65.6016 56.192 64.0496 56.128 62.8976 56C62.5136 55.968 62.2096 55.824 61.9856 55.568C61.7936 55.312 61.6976 55.056 61.6976 54.8C61.6976 54.704 61.6976 54.624 61.6976 54.56ZM96.2406 35.28C96.294 34.6667 96.6406 34.32 97.2806 34.24C98.1606 34.1333 99.3073 34.08 100.721 34.08C102.134 34.08 103.227 34.1333 104.001 34.24C104.641 34.32 104.987 34.6667 105.041 35.28C105.574 42 105.841 48.52 105.841 54.84C105.841 55.1333 105.734 55.3867 105.521 55.6C105.334 55.8133 105.094 55.9467 104.801 56C103.761 56.1067 102.414 56.16 100.761 56.16C99.0006 56.16 97.5873 56.1067 96.5206 56C96.2273 55.9467 95.974 55.8133 95.7606 55.6C95.5473 55.3867 95.4406 55.1333 95.4406 54.84C95.4406 48.52 95.7073 42 96.2406 35.28ZM95.8806 28.96C95.8806 27.7867 96.294 26.84 97.1206 26.12C97.9473 25.4 99.1206 25.04 100.641 25.04C102.187 25.04 103.374 25.4 104.201 26.12C105.054 26.84 105.481 27.7867 105.481 28.96C105.481 30.1333 105.054 31.0933 104.201 31.84C103.374 32.56 102.187 32.92 100.641 32.92C99.1206 32.92 97.9473 32.56 97.1206 31.84C96.294 31.0933 95.8806 30.1333 95.8806 28.96Z" fill="#FFCC22"/>
<path d="M34.9599 26.475C34.9599 25.505 34.9799 24.47 35.0199 23.37C35.0699 22.26 35.1399 20.96 35.2299 19.47C35.3199 17.98 35.3699 17.155 35.3799 16.995C35.3899 16.865 35.4399 16.755 35.5299 16.665C35.6199 16.565 35.7349 16.51 35.8749 16.5C36.7449 16.45 38.6649 16.425 41.6349 16.425C44.2649 16.425 46.3949 16.955 48.0249 18.015C49.6549 19.065 50.4699 20.49 50.4699 22.29C50.4699 23.76 49.7899 24.94 48.4299 25.83C47.0799 26.71 45.2049 27.15 42.8049 27.15C39.7749 27.15 37.3249 27.1 35.4549 27C35.3149 26.99 35.1949 26.935 35.0949 26.835C35.0049 26.735 34.9599 26.615 34.9599 26.475ZM38.4549 23.1C38.4749 23.6 38.5999 23.975 38.8299 24.225C39.0599 24.475 39.4299 24.62 39.9399 24.66C40.4699 24.69 41.3099 24.705 42.4599 24.705C43.8299 24.705 44.9349 24.475 45.7749 24.015C46.6249 23.555 47.0499 22.915 47.0499 22.095C47.0499 21.145 46.5749 20.355 45.6249 19.725C44.6749 19.085 43.3949 18.755 41.7849 18.735C41.6849 18.735 41.5849 18.735 41.4849 18.735C40.9749 18.735 40.3849 18.755 39.7149 18.795C39.3349 18.815 39.0349 18.955 38.8149 19.215C38.5949 19.475 38.4749 19.795 38.4549 20.175C38.4449 20.565 38.4399 21.005 38.4399 21.495C38.4399 21.985 38.4449 22.52 38.4549 23.1ZM51.4865 26.46C51.4865 23.22 51.5515 20.845 51.6815 19.335C51.7115 19.035 51.8615 18.87 52.1315 18.84C52.4815 18.79 52.8565 18.765 53.2565 18.765C53.6865 18.765 54.0215 18.79 54.2615 18.84C54.5415 18.89 54.6915 19.055 54.7115 19.335C54.8415 20.845 54.9065 23.225 54.9065 26.475C54.9065 26.775 54.7565 26.95 54.4565 27C54.1465 27.05 53.7415 27.075 53.2415 27.075C52.6315 27.075 52.1965 27.05 51.9365 27C51.8065 26.98 51.6965 26.92 51.6065 26.82C51.5265 26.72 51.4865 26.6 51.4865 26.46ZM51.2615 17.025C51.2615 16.655 51.4365 16.36 51.7865 16.14C52.1465 15.92 52.6165 15.81 53.1965 15.81C53.7765 15.81 54.2415 15.92 54.5915 16.14C54.9515 16.36 55.1315 16.655 55.1315 17.025C55.1315 17.395 54.9515 17.69 54.5915 17.91C54.2315 18.13 53.7665 18.24 53.1965 18.24C52.6265 18.24 52.1615 18.13 51.8015 17.91C51.4415 17.69 51.2615 17.395 51.2615 17.025ZM56.0369 19.005C56.1369 18.905 56.2619 18.855 56.4119 18.855H57.6119C57.7119 18.855 57.7969 18.83 57.8669 18.78C57.9369 18.73 57.9719 18.67 57.9719 18.6C57.9719 18.59 57.9719 18.58 57.9719 18.57C57.9619 18.48 57.9569 18.39 57.9569 18.3C57.9569 17.49 58.3169 16.87 59.0369 16.44C59.7669 16 60.7619 15.78 62.0219 15.78C62.9019 15.78 63.7169 15.915 64.4669 16.185C64.6969 16.265 64.8119 16.435 64.8119 16.695C64.8019 16.815 64.7969 16.995 64.7969 17.235C64.7969 17.475 64.7919 17.655 64.7819 17.775C64.7719 17.995 64.7119 18.13 64.6019 18.18C64.5019 18.23 64.4219 18.255 64.3619 18.255C64.2719 18.255 64.1769 18.22 64.0769 18.15C63.9069 18.05 63.6619 17.965 63.3419 17.895C63.0319 17.815 62.7619 17.775 62.5319 17.775C62.1319 17.775 61.8019 17.825 61.5419 17.925C61.2919 18.025 61.1669 18.17 61.1669 18.36C61.1669 18.71 61.6769 18.885 62.6969 18.885C63.1369 18.885 63.6469 18.86 64.2269 18.81C64.2369 18.81 64.2519 18.81 64.2719 18.81C64.4019 18.81 64.5169 18.86 64.6169 18.96C64.7269 19.06 64.7819 19.185 64.7819 19.335V20.34C64.7819 20.48 64.7319 20.6 64.6319 20.7C64.5319 20.79 64.4219 20.835 64.3019 20.835C64.2819 20.835 64.2669 20.835 64.2569 20.835C63.1169 20.705 62.2069 20.64 61.5269 20.64C61.4269 20.64 61.3369 20.675 61.2569 20.745C61.1869 20.815 61.1469 20.905 61.1369 21.015C61.1269 21.235 61.1219 21.49 61.1219 21.78C61.1219 22.86 61.2219 24.425 61.4219 26.475C61.4219 26.485 61.4219 26.5 61.4219 26.52C61.4219 26.64 61.3819 26.745 61.3019 26.835C61.2219 26.925 61.1119 26.98 60.9719 27C60.6719 27.05 60.2119 27.075 59.5919 27.075C58.9119 27.075 58.4169 27.05 58.1069 27C57.9669 26.98 57.8519 26.92 57.7619 26.82C57.6819 26.72 57.6419 26.6 57.6419 26.46C57.6419 24.13 57.6869 22.335 57.7769 21.075C57.7769 21.065 57.7769 21.055 57.7769 21.045C57.7769 20.955 57.7419 20.875 57.6719 20.805C57.6019 20.725 57.5119 20.685 57.4019 20.685H56.4119C56.2619 20.685 56.1369 20.635 56.0369 20.535C55.9369 20.425 55.8869 20.3 55.8869 20.16V19.38C55.8869 19.24 55.9369 19.115 56.0369 19.005ZM65.5584 19.005C65.6584 18.905 65.7834 18.855 65.9334 18.855H67.1334C67.2334 18.855 67.3184 18.83 67.3884 18.78C67.4584 18.73 67.4934 18.67 67.4934 18.6C67.4934 18.59 67.4934 18.58 67.4934 18.57C67.4834 18.48 67.4784 18.39 67.4784 18.3C67.4784 17.49 67.8384 16.87 68.5584 16.44C69.2884 16 70.2834 15.78 71.5434 15.78C72.4234 15.78 73.2384 15.915 73.9884 16.185C74.2184 16.265 74.3334 16.435 74.3334 16.695C74.3234 16.815 74.3184 16.995 74.3184 17.235C74.3184 17.475 74.3134 17.655 74.3034 17.775C74.2934 17.995 74.2334 18.13 74.1234 18.18C74.0234 18.23 73.9434 18.255 73.8834 18.255C73.7934 18.255 73.6984 18.22 73.5984 18.15C73.4284 18.05 73.1834 17.965 72.8634 17.895C72.5534 17.815 72.2834 17.775 72.0534 17.775C71.6534 17.775 71.3234 17.825 71.0634 17.925C70.8134 18.025 70.6884 18.17 70.6884 18.36C70.6884 18.71 71.1984 18.885 72.2184 18.885C72.6584 18.885 73.1684 18.86 73.7484 18.81C73.7584 18.81 73.7734 18.81 73.7934 18.81C73.9234 18.81 74.0384 18.86 74.1384 18.96C74.2484 19.06 74.3034 19.185 74.3034 19.335V20.34C74.3034 20.48 74.2534 20.6 74.1534 20.7C74.0534 20.79 73.9434 20.835 73.8234 20.835C73.8034 20.835 73.7884 20.835 73.7784 20.835C72.6384 20.705 71.7284 20.64 71.0484 20.64C70.9484 20.64 70.8584 20.675 70.7784 20.745C70.7084 20.815 70.6684 20.905 70.6584 21.015C70.6484 21.235 70.6434 21.49 70.6434 21.78C70.6434 22.86 70.7434 24.425 70.9434 26.475C70.9434 26.485 70.9434 26.5 70.9434 26.52C70.9434 26.64 70.9034 26.745 70.8234 26.835C70.7434 26.925 70.6334 26.98 70.4934 27C70.1934 27.05 69.7334 27.075 69.1134 27.075C68.4334 27.075 67.9384 27.05 67.6284 27C67.4884 26.98 67.3734 26.92 67.2834 26.82C67.2034 26.72 67.1634 26.6 67.1634 26.46C67.1634 24.13 67.2084 22.335 67.2984 21.075C67.2984 21.065 67.2984 21.055 67.2984 21.045C67.2984 20.955 67.2634 20.875 67.1934 20.805C67.1234 20.725 67.0334 20.685 66.9234 20.685H65.9334C65.7834 20.685 65.6584 20.635 65.5584 20.535C65.4584 20.425 65.4084 20.3 65.4084 20.16V19.38C65.4084 19.24 65.4584 19.115 65.5584 19.005ZM75.3049 26.46C75.3049 23.22 75.3699 20.845 75.4999 19.335C75.5299 19.035 75.6799 18.87 75.9499 18.84C76.2999 18.79 76.6749 18.765 77.0749 18.765C77.5049 18.765 77.8399 18.79 78.0799 18.84C78.3599 18.89 78.5099 19.055 78.5299 19.335C78.6599 20.845 78.7249 23.225 78.7249 26.475C78.7249 26.775 78.5749 26.95 78.2749 27C77.9649 27.05 77.5599 27.075 77.0599 27.075C76.4499 27.075 76.0149 27.05 75.7549 27C75.6249 26.98 75.5149 26.92 75.4249 26.82C75.3449 26.72 75.3049 26.6 75.3049 26.46ZM75.0799 17.025C75.0799 16.655 75.2549 16.36 75.6049 16.14C75.9649 15.92 76.4349 15.81 77.0149 15.81C77.5949 15.81 78.0599 15.92 78.4099 16.14C78.7699 16.36 78.9499 16.655 78.9499 17.025C78.9499 17.395 78.7699 17.69 78.4099 17.91C78.0499 18.13 77.5849 18.24 77.0149 18.24C76.4449 18.24 75.9799 18.13 75.6199 17.91C75.2599 17.69 75.0799 17.395 75.0799 17.025ZM79.9003 26.46C79.9103 23.92 80.0403 21.55 80.2903 19.35C80.3203 19.06 80.4703 18.89 80.7403 18.84C81.0003 18.79 81.3853 18.765 81.8953 18.765C82.2753 18.765 82.7003 18.79 83.1703 18.84C83.3003 18.86 83.3953 18.915 83.4553 19.005C83.5253 19.085 83.5603 19.165 83.5603 19.245C83.5603 19.285 83.5553 19.325 83.5453 19.365C83.4453 19.685 83.3903 19.94 83.3803 20.13C83.3803 20.16 83.3803 20.19 83.3803 20.22C83.3803 20.38 83.4153 20.46 83.4853 20.46C83.5653 20.46 83.6703 20.395 83.8003 20.265C84.3903 19.705 85.0103 19.305 85.6603 19.065C86.3103 18.815 87.0803 18.69 87.9703 18.69C89.4303 18.69 90.6553 19.055 91.6453 19.785C92.6353 20.505 93.1903 21.39 93.3103 22.44C93.4303 23.5 93.4903 24.835 93.4903 26.445C93.4903 26.605 93.4453 26.735 93.3553 26.835C93.2653 26.925 93.1453 26.98 92.9953 27C92.5653 27.05 92.1753 27.075 91.8253 27.075C91.4253 27.075 90.9653 27.05 90.4453 27C90.3053 26.98 90.1853 26.925 90.0853 26.835C89.9953 26.745 89.9503 26.64 89.9503 26.52C89.9503 26.5 89.9503 26.485 89.9503 26.475C90.0503 25.595 90.1003 24.82 90.1003 24.15C90.1003 23.94 90.0953 23.74 90.0853 23.55C90.0453 22.79 89.7053 22.155 89.0653 21.645C88.4353 21.125 87.6203 20.865 86.6203 20.865C85.6503 20.865 84.8403 21.13 84.1903 21.66C83.5503 22.19 83.2303 22.84 83.2303 23.61C83.2303 24.61 83.3053 25.565 83.4553 26.475C83.4553 26.495 83.4553 26.52 83.4553 26.55C83.4553 26.66 83.4103 26.76 83.3203 26.85C83.2403 26.93 83.1303 26.98 82.9903 27C82.5903 27.05 82.1503 27.075 81.6703 27.075C81.2203 27.075 80.7803 27.05 80.3503 27C80.2203 26.98 80.1103 26.925 80.0203 26.835C79.9403 26.735 79.9003 26.625 79.9003 26.505C79.9003 26.485 79.9003 26.47 79.9003 26.46ZM95.8265 19.56L95.4515 19.11C95.2515 18.86 95.2965 18.65 95.5865 18.48C95.7565 18.39 95.9015 18.285 96.0215 18.165C96.0615 18.125 96.0865 18.085 96.0965 18.045C96.1065 18.005 96.0965 17.975 96.0665 17.955C96.0365 17.925 95.9865 17.91 95.9165 17.91C95.4565 17.94 95.0615 17.795 94.7315 17.475C94.4015 17.155 94.2365 16.735 94.2365 16.215C94.2365 15.675 94.4215 15.255 94.7915 14.955C95.1715 14.655 95.6615 14.505 96.2615 14.505C96.8715 14.505 97.3615 14.685 97.7315 15.045C98.1015 15.395 98.2865 15.875 98.2865 16.485C98.2765 17.185 98.0915 17.825 97.7315 18.405C97.3815 18.975 96.9515 19.405 96.4415 19.695C96.2015 19.825 95.9965 19.78 95.8265 19.56Z" fill="#FFCC22"/>
</svg>
