<svg width="90" height="43" viewBox="0 0 90 43" fill="none" xmlns="http://www.w3.org/2000/svg">
<path d="M32.9473 17.1562H16.248L15.7656 19.0117H28.7539L25.2656 32H3L4.48438 26.4336H17.4727L17.9736 24.5781H4.98535L8.47363 11.5898H34.4502L32.9473 17.1562ZM37.832 22.625H35.4883L33.918 28.4844H36.2617L36.5781 27.3125H42.4375L41.1836 32H27.1211L30.5781 19.1094H44.6406L43.3867 23.7969H37.5273L37.832 22.625ZM49.1523 28.4844H51.4961L53.0664 22.625H50.7227L49.1523 28.4844ZM42.3555 32L45.8125 19.1094H59.875L56.418 32H42.3555ZM65.0195 26.1406L69.4727 22.625H65.957L65.0195 26.1406ZM65.0195 26.1406L63.4492 32H57.5898L61.0469 19.1094H79.7969L70.8789 26.1406L75.168 32H69.3086L65.0195 26.1406ZM80.793 28.4844H86.6523L85.7148 32H73.9961L77.4531 19.1094H89.1719L88.2227 22.625H82.3633L80.793 28.4844ZM83.2305 23.7969H86.7461L82.2812 27.3125L83.2305 23.7969Z" fill="#FF5151"/>
<rect width="83.8225" height="8.28221" transform="matrix(1 0 -0.258819 0.965926 2.17639 35)" fill="#FF5151"/>
</svg>
